<svg data-v-fde0c5aa="" xmlns="http://www.w3.org/2000/svg" viewBox="0 0 300 300" class="font"><!----><defs data-v-fde0c5aa=""><!----></defs><rect data-v-fde0c5aa="" fill="transparent" x="0" y="0" width="300px" height="300px" class="logo-background-square"></rect><defs data-v-fde0c5aa=""><linearGradient data-v-fde0c5aa="" gradientTransform="rotate(25)" id="9dbb7fab-1a0c-4195-affd-ed51c62559c1" x1="0%" y1="0%" x2="100%" y2="0%"><stop data-v-fde0c5aa="" offset="0%" stop-color="#122663" stop-opacity="1"></stop><stop data-v-fde0c5aa="" offset="100%" stop-color="#5DD7AD" stop-opacity="1"></stop></linearGradient></defs><g data-v-fde0c5aa="" id="f9f0acf8-593f-4b0d-87c1-5e142e9fe22c" fill="url(#9dbb7fab-1a0c-4195-affd-ed51c62559c1)" transform="matrix(3.5149384800073964,0,0,3.5149384800073964,35.92267148051515,127.36379719228925)"><path d="M5.08 5.46C4.18 5.46 3.41 5.79 2.82 6.34L2.82 0.14L1.16 0.14L1.16 12.60L2.82 12.60L2.82 11.87C3.41 12.41 4.18 12.74 5.08 12.74C7.05 12.74 8.63 11.13 8.63 9.10C8.63 7.07 7.05 5.46 5.08 5.46ZM4.87 11.20C3.69 11.20 2.77 10.27 2.77 9.10C2.77 7.93 3.69 7.00 4.87 7.00C6.04 7.00 6.97 7.93 6.97 9.10C6.97 10.27 6.04 11.20 4.87 11.20ZM11.36 4.36C11.90 4.36 12.36 3.90 12.36 3.38C12.36 2.82 11.90 2.38 11.36 2.38C10.82 2.38 10.36 2.82 10.36 3.38C10.36 3.90 10.82 4.36 11.36 4.36ZM10.54 12.60L12.18 12.60L12.18 5.60L10.54 5.60ZM20.04 5.60L14.21 5.60L14.21 7.07L17.36 7.07L13.90 12.60L19.97 12.60L19.97 11.13L16.55 11.13ZM29.07 5.46C28.16 5.46 27.41 5.88 26.95 6.56C26.50 5.90 25.78 5.46 24.99 5.46C24.29 5.46 23.70 5.79 23.26 6.32L23.26 5.60L21.60 5.60L21.60 12.60L23.26 12.60L23.26 8.33C23.26 7.65 23.75 7.00 24.50 7.00C25.22 7.00 25.76 7.60 25.76 8.33L25.76 12.60L27.42 12.60L27.42 8.33C27.42 7.65 27.91 7.00 28.67 7.00C29.38 7.00 29.93 7.60 29.93 8.33L29.93 12.60L31.59 12.60L31.59 8.16C31.59 6.62 30.55 5.46 29.07 5.46ZM41.41 11.24C41.07 11.24 40.76 11.06 40.76 10.45L40.76 5.60L39.10 5.60L39.10 6.34C38.50 5.79 37.73 5.46 36.84 5.46C34.86 5.46 33.29 7.07 33.29 9.10C33.29 11.13 34.86 12.74 36.84 12.74C37.85 12.74 38.75 12.29 39.34 11.57C39.69 12.27 40.37 12.74 41.23 12.74C41.44 12.74 41.63 12.69 41.79 12.60L41.79 11.24ZM37.05 11.20C35.88 11.20 34.95 10.27 34.95 9.10C34.95 7.93 35.88 7.00 37.05 7.00C38.20 7.00 39.15 7.93 39.15 9.10C39.15 10.27 38.20 11.20 37.05 11.20ZM46.66 5.46C45.96 5.46 45.33 5.76 44.85 6.27L44.85 5.60L43.19 5.60L43.19 12.60L44.85 12.60L44.85 8.33C44.85 7.58 45.45 7.00 46.22 7.00C46.99 7.00 47.57 7.58 47.57 8.33L47.57 12.60L49.21 12.60L49.21 8.16C49.21 6.63 48.02 5.46 46.66 5.46ZM55.11 7.00L55.11 5.60L53.34 5.60L53.34 2.73L51.68 2.73L51.68 5.60L50.52 5.60L50.52 7.00L51.68 7.00L51.68 10.43C51.68 11.73 52.78 12.74 54.06 12.74C54.46 12.74 54.90 12.64 55.07 12.51L55.07 11.24L54.27 11.24C53.74 11.24 53.34 10.85 53.34 10.24L53.34 7.00ZM59.99 12.74C62.16 12.74 63.75 11.15 63.75 9.10C63.75 7.05 62.16 5.46 59.99 5.46C57.82 5.46 56.23 7.05 56.23 9.10C56.23 11.15 57.82 12.74 59.99 12.74ZM59.99 11.20C58.80 11.20 57.89 10.27 57.89 9.10C57.89 7.93 58.80 7.00 59.99 7.00C61.16 7.00 62.09 7.93 62.09 9.10C62.09 10.27 61.16 11.20 59.99 11.20Z"></path></g><!----><!----></svg>